<?xml version="1.0" encoding="utf-8"?>
<!-- Generator: Adobe Illustrator 23.1.0, SVG Export Plug-In . SVG Version: 6.00 Build 0)  -->
<svg version="1.1" xmlns="http://www.w3.org/2000/svg" xmlns:xlink="http://www.w3.org/1999/xlink" x="0px" y="0px"
	 viewBox="0 0 520 420" enable-background="new 0 0 520 420" xml:space="preserve">
<g id="Layer_2">
	<rect x="110" y="260" fill="#333333" stroke="#231F20" stroke-width="5" width="250" height="21.43"/>
	<rect x="210" y="302.86" fill="#333333" stroke="#231F20" stroke-width="5" width="150" height="21.43"/>
	<rect x="160" y="345.71" fill="#333333" stroke="#231F20" stroke-width="5" width="150" height="21.43"/>
	<rect x="210" y="388.57" stroke="#231F20" stroke-width="5" width="100" height="21.43"/>
	<polyline fill="none" stroke="#231F20" stroke-width="5" points="360,260 410,260 410,290 160,290 160,337.14 360,337.14 
		360,375.71 160,375.71 160,392.86 210,392.86 	"/>
</g>
<g id="Layer_3">
	<path fill="#FFFF00" stroke="#231F20" stroke-width="5" d="M460,260H60c-27.61,0-50-22.39-50-50V60c0-27.61,22.39-50,50-50h400
		c27.61,0,50,22.39,50,50v150C510,237.61,487.61,260,460,260z"/>
</g>
<g id="Layer_1">
	<g>
		<g>
			<path fill="#FFFFFF" d="M114.8,210v-70h21.8v70H114.8z"/>
			<path fill="#FFFF00" d="M146.9,210v-70H169c22.2,0,35.9,15.1,35.9,36.9c0,16.1-12.2,33.1-33,33.1v-20c6.9-0.6,10.8-6.2,10.8-15
				c0-7-3.5-15-14-15v50H146.9z"/>
			<path fill="#FFFF00" d="M253.2,183.4h-22.4c2.8,6.4,8.6,8,14,8h8.4V210h-11c-16.4,0-35.4-11.2-35.4-35c0-23.8,19-35,35.4-35h11
				v18.6h-8.4c-5.4,0-11.2,1.6-14,8h22.4V183.4z"/>
			<path fill="#FFFFFF" d="M286.6,170.9h6.7v-6.2c0-3.6-2.1-5.7-5-5.7c-2.9,0-4.9,2.1-4.9,5.7V210h-21.8v-44.8
				c0-9.8,7.1-26.4,26.8-26.4s26.7,16.6,26.7,26.4V210h-21.8v-21.3h-6.7V170.9z"/>
		</g>
		<g>
			<path fill="none" stroke="#231F20" stroke-width="5" stroke-linejoin="round" d="M114.8,210v-70h21.8v70H114.8z"/>
			<path fill="none" stroke="#231F20" stroke-width="5" stroke-linejoin="round" d="M146.9,210v-70H169c22.2,0,35.9,15.1,35.9,36.9
				c0,16.1-12.2,33.1-33,33.1v-20c6.9-0.6,10.8-6.2,10.8-15c0-7-3.5-15-14-15v50H146.9z"/>
			<path fill="none" stroke="#231F20" stroke-width="5" stroke-linejoin="round" d="M253.2,183.4h-22.4c2.8,6.4,8.6,8,14,8h8.4V210
				h-11c-16.4,0-35.4-11.2-35.4-35c0-23.8,19-35,35.4-35h11v18.6h-8.4c-5.4,0-11.2,1.6-14,8h22.4V183.4z"/>
			<path fill="none" stroke="#231F20" stroke-width="5" stroke-linejoin="round" d="M286.6,170.9h6.7v-6.2c0-3.6-2.1-5.7-5-5.7
				c-2.9,0-4.9,2.1-4.9,5.7V210h-21.8v-44.8c0-9.8,7.1-26.4,26.8-26.4s26.7,16.6,26.7,26.4V210h-21.8v-21.3h-6.7V170.9z"/>
		</g>
	</g>
	<g>
		<g>
			<path fill="#FFFFFF" d="M115.1,130V60h21.8v25.1c2-0.1,2.5-0.9,3.4-3.7l7.1-21.4h21.9l-6.9,21.1c-2.2,6.6-4.3,8.5-5.7,9.8
				c5.8,2,10.8,6.5,10.8,12.3V130h-21.8v-24.2c0-3-2.9-4.4-8.8-4.3V130H115.1z"/>
			<path fill="#FFFF00" d="M200.2,130h-21.8V71.4c0-10,7.4-12.6,11.8-12.6c6.2,0,10.8,4.3,12.7,8.1L214.1,89h0.2V60h21.8v58.8
				c0,10-7.4,12.6-11.8,12.6c-6.2,0-10.8-4.3-12.7-8.1l-11.2-22.1h-0.2V130z"/>
			<path fill="#FFFF00" d="M312.5,95c0,19.9-16.3,36.2-36.2,36.2c-19.9,0-36.2-16.3-36.2-36.2c0-19.9,16.3-36.2,36.2-36.2
				C296.2,58.8,312.5,75.1,312.5,95z M262.3,95c0,7.7,6.3,14,14,14c7.7,0,14-6.3,14-14c0-7.7-6.3-14-14-14
				C268.6,81,262.3,87.3,262.3,95z"/>
			<path fill="#FFFFFF" d="M373.3,60v44.1c0,5.1,0.6,7.1,4.3,7.1s4.3-2,4.3-7.1V60h21.8v47.8c0,10.2-6.5,23.4-26.1,23.4
				c-4.4,0-10.8-1.9-15.2-6.7c-4.4,4.8-10.8,6.7-15.2,6.7c-19.6,0-26.1-13.2-26.1-23.4V60h21.8v44.1c0,5.1,0.6,7.1,4.3,7.1
				s4.3-2,4.3-7.1V60H373.3z"/>
		</g>
		<g>
			<path fill="none" stroke="#231F20" stroke-width="5" stroke-linejoin="round" d="M115.1,130V60h21.8v25.1c2-0.1,2.5-0.9,3.4-3.7
				l7.1-21.4h21.9l-6.9,21.1c-2.2,6.6-4.3,8.5-5.7,9.8c5.8,2,10.8,6.5,10.8,12.3V130h-21.8v-24.2c0-3-2.9-4.4-8.8-4.3V130H115.1z"/>
			<path fill="none" stroke="#231F20" stroke-width="5" stroke-linejoin="round" d="M200.2,130h-21.8V71.4c0-10,7.4-12.6,11.8-12.6
				c6.2,0,10.8,4.3,12.7,8.1L214.1,89h0.2V60h21.8v58.8c0,10-7.4,12.6-11.8,12.6c-6.2,0-10.8-4.3-12.7-8.1l-11.2-22.1h-0.2V130z"/>
			<path fill="none" stroke="#231F20" stroke-width="5" stroke-linejoin="round" d="M312.5,95c0,19.9-16.3,36.2-36.2,36.2
				c-19.9,0-36.2-16.3-36.2-36.2c0-19.9,16.3-36.2,36.2-36.2C296.2,58.8,312.5,75.1,312.5,95z M262.3,95c0,7.7,6.3,14,14,14
				c7.7,0,14-6.3,14-14c0-7.7-6.3-14-14-14C268.6,81,262.3,87.3,262.3,95z"/>
			<path fill="none" stroke="#231F20" stroke-width="5" stroke-linejoin="round" d="M373.3,60v44.1c0,5.1,0.6,7.1,4.3,7.1
				s4.3-2,4.3-7.1V60h21.8v47.8c0,10.2-6.5,23.4-26.1,23.4c-4.4,0-10.8-1.9-15.2-6.7c-4.4,4.8-10.8,6.7-15.2,6.7
				c-19.6,0-26.1-13.2-26.1-23.4V60h21.8v44.1c0,5.1,0.6,7.1,4.3,7.1s4.3-2,4.3-7.1V60H373.3z"/>
		</g>
	</g>
</g>
</svg>
